M48
;DRILL file {KiCad (5.0.1)-4} date 27/04/2019 11:26:44
;FORMAT={-:-/ absolute / inch / decimal}
FMAT,2
INCH,TZ
T1C0.0157
T2C0.0276
T3C0.0300
T4C0.0315
T5C0.0354
T6C0.0394
T7C0.0433
T8C0.0512
%
G90
G05
M72
T1
X3.0346Y-4.9499
X3.08Y-4.25
X3.1145Y-3.9
X3.119Y-3.983
X3.1243Y-4.1949
X3.2059Y-3.8471
X3.3462Y-4.044
X3.427Y-4.321
X3.4662Y-3.8956
X3.4705Y-3.6421
X3.4869Y-4.2252
X3.51Y-3.7915
X3.514Y-3.1745
X3.515Y-4.3051
X3.547Y-4.198
X3.5525Y-4.396
X3.5645Y-3.3825
X3.6304Y-3.8021
X3.831Y-3.711
X3.8525Y-3.5865
X3.94Y-4.04
X3.941Y-3.9405
X4.018Y-3.9285
X4.07Y-4.
X4.1135Y-4.048
X4.1565Y-4.0055
X4.2005Y-4.0075
X4.2825Y-5.0855
X4.34Y-4.0275
X4.4705Y-3.997
X4.649Y-3.749
X4.6515Y-4.211
X4.652Y-3.5719
X4.6615Y-3.9195
X4.7095Y-3.2305
X4.9625Y-3.748
X4.976Y-3.6015
X5.0815Y-4.366
X5.09Y-3.95
X5.11Y-4.18
X5.13Y-3.63
X5.2895Y-3.132
X5.293Y-5.106
X5.4645Y-3.9875
X5.563Y-4.0315
X5.5975Y-3.9115
X5.6095Y-3.841
X5.71Y-3.56
X5.7134Y-4.0557
X5.72Y-3.5
X5.848Y-3.45
X5.848Y-3.53
X5.8965Y-3.7195
X5.9375Y-4.9905
X6.1Y-3.9255
T2
X5.2402Y-3.8346
X5.4402Y-3.8346
X3.0283Y-4.122
X3.2283Y-4.122
X2.9961Y-4.0197
X3.1961Y-4.0197
X5.8315Y-3.3504
X6.0315Y-3.3504
X2.9331Y-4.2528
X2.9331Y-4.4528
T3
X3.6339Y-4.9764
X3.9252Y-4.9764
X5.0906Y-4.9764
X5.3819Y-4.9764
X3.6299Y-3.2638
X3.9213Y-3.2638
X5.0866Y-3.2638
X5.378Y-3.2638
T4
X5.6102Y-4.8543
X5.7087Y-4.8543
X3.0165Y-3.6535
X3.2165Y-3.6535
X3.3189Y-3.8701
X3.3189Y-3.9961
X3.4173Y-3.8701
X3.4173Y-3.9961
X3.5157Y-3.8701
X3.5157Y-3.9961
X5.248Y-3.9449
X5.3465Y-3.9449
X3.3228Y-4.122
X3.4213Y-4.122
X3.8299Y-3.8228
X3.8299Y-4.1228
X3.9299Y-3.8228
X3.9299Y-4.1228
X4.0299Y-3.8228
X4.0299Y-4.1228
X4.1299Y-3.8228
X4.1299Y-4.1228
X4.2299Y-3.8228
X4.2299Y-4.1228
X4.3299Y-3.8228
X4.3299Y-4.1228
X4.4299Y-3.8228
X4.4299Y-4.1228
X4.5299Y-3.8228
X4.5299Y-4.1228
X4.6299Y-3.8228
X4.6299Y-4.1228
X4.7299Y-3.8228
X4.7299Y-4.1228
X4.8299Y-3.8228
X4.8299Y-4.1228
X4.9299Y-3.8228
X4.9299Y-4.1228
X5.0299Y-3.8228
X5.0299Y-4.1228
X5.1299Y-3.8228
X5.1299Y-4.1228
T5
X5.6102Y-3.3898
X5.7102Y-3.3898
X3.3189Y-3.3898
X3.4189Y-3.3898
T6
X5.2598Y-4.0827
X5.3583Y-4.0827
X5.4567Y-4.0827
X3.3855Y-3.1477
X5.3504Y-4.2283
X5.4488Y-4.2283
X5.5472Y-4.2283
X4.2677Y-4.2283
X4.3661Y-4.2283
X4.4646Y-4.2283
X3.1772Y-4.2283
X3.2756Y-4.2283
X3.374Y-4.2283
X3.2362Y-3.1457
X3.7283Y-4.2283
X3.8268Y-4.2283
X3.9252Y-4.2283
X4.811Y-4.2283
X4.9094Y-4.2283
X5.0079Y-4.2283
X5.6457Y-3.1181
X5.7457Y-3.1181
X5.8457Y-3.1181
X6.2283Y-3.5984
X6.2283Y-3.6984
X6.2283Y-3.7984
X6.2283Y-3.8984
X6.2283Y-3.9984
X6.2283Y-4.0984
X2.8701Y-3.5945
X2.8701Y-3.6945
X2.8701Y-3.7945
X2.8701Y-3.8945
X2.8701Y-3.9945
X2.8701Y-4.0945
T7
X4.8701Y-3.5433
X4.8701Y-3.7205
X5.126Y-3.5433
X5.126Y-3.7205
X3.7205Y-3.5433
X3.7205Y-3.7205
X3.9764Y-3.5433
X3.9764Y-3.7205
X4.0984Y-3.5433
X4.0984Y-3.7205
X4.3543Y-3.5433
X4.3543Y-3.7205
X3.3386Y-3.5433
X3.3386Y-3.7205
X3.5945Y-3.5433
X3.5945Y-3.7205
X5.252Y-3.5433
X5.252Y-3.7205
X5.5079Y-3.5433
X5.5079Y-3.7205
X4.4882Y-3.5433
X4.4882Y-3.7205
X4.7441Y-3.5433
X4.7441Y-3.7205
T8
X5.7913Y-4.3189
X5.9173Y-4.685
X5.9646Y-4.5787
X6.0787Y-4.2992
X6.2323Y-4.4803
T0
M30
