  0
SECTION
  2
HEADER
  9
$ANGBASE
  50
0.0
  9
$ANGDIR
  70
  1
  9
$MEASUREMENT
  70
0
  0
ENDSEC
  0
SECTION
  2
TABLES
  0
TABLE
  2
LTYPE
  70
4
  0
LTYPE
  5
40F
  2
CONTINUOUS
  70
0
  3
Solid line
  72
65
  73
0
  40
0.0
  0
LTYPE
  5
410
  2
DASHDOT
 70
0
  3
Dash Dot ____ _ ____ _
 72
65
 73
4
 40
2.0
 49
1.25
 49
-0.25
 49
0.25
 49
-0.25
  0
LTYPE
  5
411
  2
DASHED
 70
0
  3
Dashed __ __ __ __ __
 72
65
 73
2
 40
0.75
 49
0.5
 49
-0.25
  0
LTYPE
  5
43B
  2
DOTTED
 70
0
  3
Dotted .  .  .  .
 72
65
 73
2
 40
0.2
 49
0.0
 49
-0.2
  0
ENDTAB
  0
TABLE
  2
STYLE
  70
4
  0
STYLE
  2
KICAD
  70
0
  40
0
  41
1
  42
1
  50
0
  71
0
  3
isocp.shx
  0
STYLE
  2
KICADB
  70
0
  40
0
  41
1
  42
1
  50
0
  71
0
  3
isocp.shx
  0
STYLE
  2
KICADI
  70
0
  40
0
  41
1
  42
1
  50
15
  71
0
  3
isocp.shx
  0
STYLE
  2
KICADBI
  70
0
  40
0
  41
1
  42
1
  50
15
  71
0
  3
isocp.shx
  0
ENDTAB
  0
TABLE
  2
LAYER
  70
30
  0
LAYER
  2
BLACK
  70
0
  62
7
  6
CONTINUOUS
  0
LAYER
  2
GRAY1
  70
0
  62
251
  6
CONTINUOUS
  0
LAYER
  2
GRAY2
  70
0
  62
8
  6
CONTINUOUS
  0
LAYER
  2
GRAY3
  70
0
  62
9
  6
CONTINUOUS
  0
LAYER
  2
WHITE
  70
0
  62
7
  6
CONTINUOUS
  0
LAYER
  2
LYELLOW
  70
0
  62
51
  6
CONTINUOUS
  0
LAYER
  2
BLUE1
  70
0
  62
178
  6
CONTINUOUS
  0
LAYER
  2
GREEN1
  70
0
  62
98
  6
CONTINUOUS
  0
LAYER
  2
CYAN1
  70
0
  62
138
  6
CONTINUOUS
  0
LAYER
  2
RED1
  70
0
  62
18
  6
CONTINUOUS
  0
LAYER
  2
MAGENTA1
  70
0
  62
228
  6
CONTINUOUS
  0
LAYER
  2
BROWN1
  70
0
  62
58
  6
CONTINUOUS
  0
LAYER
  2
BLUE2
  70
0
  62
5
  6
CONTINUOUS
  0
LAYER
  2
GREEN2
  70
0
  62
3
  6
CONTINUOUS
  0
LAYER
  2
CYAN2
  70
0
  62
4
  6
CONTINUOUS
  0
LAYER
  2
RED2
  70
0
  62
1
  6
CONTINUOUS
  0
LAYER
  2
MAGENTA2
  70
0
  62
6
  6
CONTINUOUS
  0
LAYER
  2
BROWN2
  70
0
  62
54
  6
CONTINUOUS
  0
LAYER
  2
BLUE3
  70
0
  62
171
  6
CONTINUOUS
  0
LAYER
  2
GREEN3
  70
0
  62
91
  6
CONTINUOUS
  0
LAYER
  2
CYAN3
  70
0
  62
131
  6
CONTINUOUS
  0
LAYER
  2
RED3
  70
0
  62
11
  6
CONTINUOUS
  0
LAYER
  2
MAGENTA3
  70
0
  62
221
  6
CONTINUOUS
  0
LAYER
  2
YELLOW3
  70
0
  62
2
  6
CONTINUOUS
  0
LAYER
  2
BLUE4
  70
0
  62
5
  6
CONTINUOUS
  0
LAYER
  2
GREEN4
  70
0
  62
3
  6
CONTINUOUS
  0
LAYER
  2
CYAN4
  70
0
  62
4
  6
CONTINUOUS
  0
LAYER
  2
RED4
  70
0
  62
1
  6
CONTINUOUS
  0
LAYER
  2
MAGENTA4
  70
0
  62
6
  6
CONTINUOUS
  0
LAYER
  2
YELLOW4
  70
0
  62
2
  6
CONTINUOUS
  0
ENDTAB
  0
ENDSEC
  0
SECTION
  2
ENTITIES
0
LINE
8
BLACK
6
CONTINUOUS
10
147.881
20
-77.0035
11
147.885
21
-77.0038
0
LINE
8
BLACK
6
CONTINUOUS
10
147.885
20
-77.0038
11
147.887
21
-77.0041
0
LINE
8
BLACK
6
CONTINUOUS
10
147.887
20
-77.0041
11
147.889
21
-77.0043
0
LINE
8
BLACK
6
CONTINUOUS
10
147.889
20
-77.0043
11
149.349
21
-77.2395
0
LINE
8
BLACK
6
CONTINUOUS
10
149.349
20
-77.2395
11
149.353
21
-77.2403
0
LINE
8
BLACK
6
CONTINUOUS
10
149.353
20
-77.2403
11
149.355
21
-77.2408
0
LINE
8
BLACK
6
CONTINUOUS
10
149.355
20
-77.2408
11
149.357
21
-77.2412
0
LINE
8
BLACK
6
CONTINUOUS
10
149.357
20
-77.2412
11
150.784
21
-77.6303
0
LINE
8
BLACK
6
CONTINUOUS
10
150.784
20
-77.6303
11
150.788
21
-77.6315
0
LINE
8
BLACK
6
CONTINUOUS
10
150.788
20
-77.6315
11
150.79
21
-77.6322
0
LINE
8
BLACK
6
CONTINUOUS
10
150.79
20
-77.6322
11
150.792
21
-77.6328
0
LINE
8
BLACK
6
CONTINUOUS
10
150.792
20
-77.6328
11
152.169
21
-78.1713
0
LINE
8
BLACK
6
CONTINUOUS
10
152.169
20
-78.1713
11
152.173
21
-78.1729
0
LINE
8
BLACK
6
CONTINUOUS
10
152.173
20
-78.1729
11
152.175
21
-78.1738
0
LINE
8
BLACK
6
CONTINUOUS
10
152.175
20
-78.1738
11
152.177
21
-78.1746
0
LINE
8
BLACK
6
CONTINUOUS
10
152.177
20
-78.1746
11
153.489
21
-78.8565
0
LINE
8
BLACK
6
CONTINUOUS
10
153.489
20
-78.8565
11
153.493
21
-78.8585
0
LINE
8
BLACK
6
CONTINUOUS
10
153.493
20
-78.8585
11
153.494
21
-78.8595
0
LINE
8
BLACK
6
CONTINUOUS
10
153.494
20
-78.8595
11
153.496
21
-78.8605
0
LINE
8
BLACK
6
CONTINUOUS
10
153.496
20
-78.8605
11
154.729
21
-79.678
0
LINE
8
BLACK
6
CONTINUOUS
10
154.729
20
-79.678
11
154.732
21
-79.6804
0
LINE
8
BLACK
6
CONTINUOUS
10
154.732
20
-79.6804
11
154.734
21
-79.6816
0
LINE
8
BLACK
6
CONTINUOUS
10
154.734
20
-79.6816
11
154.735
21
-79.6828
0
LINE
8
BLACK
6
CONTINUOUS
10
154.735
20
-79.6828
11
155.874
21
-80.6267
0
LINE
8
BLACK
6
CONTINUOUS
10
155.874
20
-80.6267
11
155.877
21
-80.6293
0
LINE
8
BLACK
6
CONTINUOUS
10
155.877
20
-80.6293
11
155.879
21
-80.6308
0
LINE
8
BLACK
6
CONTINUOUS
10
155.879
20
-80.6308
11
155.88
21
-80.6321
0
LINE
8
BLACK
6
CONTINUOUS
10
155.88
20
-80.6321
11
156.912
21
-81.6916
0
LINE
8
BLACK
6
CONTINUOUS
10
156.912
20
-81.6916
11
156.915
21
-81.6946
0
LINE
8
BLACK
6
CONTINUOUS
10
156.915
20
-81.6946
11
156.916
21
-81.6962
0
LINE
8
BLACK
6
CONTINUOUS
10
156.916
20
-81.6962
11
156.917
21
-81.6977
0
LINE
8
BLACK
6
CONTINUOUS
10
156.917
20
-81.6977
11
157.831
21
-82.8609
0
LINE
8
BLACK
6
CONTINUOUS
10
157.831
20
-82.8609
11
157.834
21
-82.8641
0
LINE
8
BLACK
6
CONTINUOUS
10
157.834
20
-82.8641
11
157.835
21
-82.8658
0
LINE
8
BLACK
6
CONTINUOUS
10
157.835
20
-82.8658
11
157.836
21
-82.8674
0
LINE
8
BLACK
6
CONTINUOUS
10
157.836
20
-82.8674
11
158.621
21
-84.1212
0
LINE
8
BLACK
6
CONTINUOUS
10
158.621
20
-84.1212
11
158.623
21
-84.1247
0
LINE
8
BLACK
6
CONTINUOUS
10
158.623
20
-84.1247
11
158.624
21
-84.1264
0
LINE
8
BLACK
6
CONTINUOUS
10
158.624
20
-84.1264
11
158.625
21
-84.1282
0
LINE
8
BLACK
6
CONTINUOUS
10
158.625
20
-84.1282
11
159.272
21
-85.4582
0
LINE
8
BLACK
6
CONTINUOUS
10
159.272
20
-85.4582
11
159.274
21
-85.4619
0
LINE
8
BLACK
6
CONTINUOUS
10
159.274
20
-85.4619
11
159.274
21
-85.4638
0
LINE
8
BLACK
6
CONTINUOUS
10
159.274
20
-85.4638
11
159.275
21
-85.4656
0
LINE
8
BLACK
6
CONTINUOUS
10
159.275
20
-85.4656
11
159.777
21
-86.8569
0
LINE
8
BLACK
6
CONTINUOUS
10
159.777
20
-86.8569
11
159.779
21
-86.8607
0
LINE
8
BLACK
6
CONTINUOUS
10
159.779
20
-86.8607
11
159.779
21
-86.8627
0
LINE
8
BLACK
6
CONTINUOUS
10
159.779
20
-86.8627
11
159.78
21
-86.8645
0
LINE
8
BLACK
6
CONTINUOUS
10
159.78
20
-86.8645
11
160.131
21
-88.3013
0
LINE
8
BLACK
6
CONTINUOUS
10
160.131
20
-88.3013
11
160.132
21
-88.3053
0
LINE
8
BLACK
6
CONTINUOUS
10
160.132
20
-88.3053
11
160.132
21
-88.3073
0
LINE
8
BLACK
6
CONTINUOUS
10
160.132
20
-88.3073
11
160.133
21
-88.3092
0
LINE
8
BLACK
6
CONTINUOUS
10
160.133
20
-88.3092
11
160.33
21
-89.7752
0
LINE
8
BLACK
6
CONTINUOUS
10
160.33
20
-89.7752
11
160.33
21
-89.7793
0
LINE
8
BLACK
6
CONTINUOUS
10
160.33
20
-89.7793
11
160.33
21
-89.7807
0
LINE
8
BLACK
6
CONTINUOUS
10
160.33
20
-89.7807
11
160.33
21
-89.7822
0
LINE
8
BLACK
6
CONTINUOUS
10
160.33
20
-89.7822
11
160.375
21
-90.892
0
LINE
8
BLACK
6
CONTINUOUS
10
160.375
20
-90.892
11
160.375
21
-90.8934
0
LINE
8
BLACK
6
CONTINUOUS
10
160.375
20
-90.8934
11
160.375
21
-118.193
0
LINE
8
BLACK
6
CONTINUOUS
10
160.375
20
-118.193
11
160.375
21
-118.196
0
LINE
8
BLACK
6
CONTINUOUS
10
160.375
20
-118.196
11
160.375
21
-118.204
0
LINE
8
BLACK
6
CONTINUOUS
10
160.375
20
-118.204
11
160.297
21
-119.681
0
LINE
8
BLACK
6
CONTINUOUS
10
160.297
20
-119.681
11
160.296
21
-119.685
0
LINE
8
BLACK
6
CONTINUOUS
10
160.296
20
-119.685
11
160.296
21
-119.687
0
LINE
8
BLACK
6
CONTINUOUS
10
160.296
20
-119.687
11
160.296
21
-119.689
0
LINE
8
BLACK
6
CONTINUOUS
10
160.296
20
-119.689
11
160.06
21
-121.149
0
LINE
8
BLACK
6
CONTINUOUS
10
160.06
20
-121.149
11
160.06
21
-121.153
0
LINE
8
BLACK
6
CONTINUOUS
10
160.06
20
-121.153
11
160.059
21
-121.155
0
LINE
8
BLACK
6
CONTINUOUS
10
160.059
20
-121.155
11
160.059
21
-121.157
0
LINE
8
BLACK
6
CONTINUOUS
10
160.059
20
-121.157
11
159.67
21
-122.584
0
LINE
8
BLACK
6
CONTINUOUS
10
159.67
20
-122.584
11
159.669
21
-122.588
0
LINE
8
BLACK
6
CONTINUOUS
10
159.669
20
-122.588
11
159.668
21
-122.59
0
LINE
8
BLACK
6
CONTINUOUS
10
159.668
20
-122.59
11
159.667
21
-122.592
0
LINE
8
BLACK
6
CONTINUOUS
10
159.667
20
-122.592
11
159.129
21
-123.969
0
LINE
8
BLACK
6
CONTINUOUS
10
159.129
20
-123.969
11
159.127
21
-123.973
0
LINE
8
BLACK
6
CONTINUOUS
10
159.127
20
-123.973
11
159.126
21
-123.975
0
LINE
8
BLACK
6
CONTINUOUS
10
159.126
20
-123.975
11
159.125
21
-123.977
0
LINE
8
BLACK
6
CONTINUOUS
10
159.125
20
-123.977
11
158.444
21
-125.289
0
LINE
8
BLACK
6
CONTINUOUS
10
158.444
20
-125.289
11
158.442
21
-125.293
0
LINE
8
BLACK
6
CONTINUOUS
10
158.442
20
-125.293
11
158.44
21
-125.294
0
LINE
8
BLACK
6
CONTINUOUS
10
158.44
20
-125.294
11
158.439
21
-125.296
0
LINE
8
BLACK
6
CONTINUOUS
10
158.439
20
-125.296
11
157.622
21
-126.529
0
LINE
8
BLACK
6
CONTINUOUS
10
157.622
20
-126.529
11
157.62
21
-126.532
0
LINE
8
BLACK
6
CONTINUOUS
10
157.62
20
-126.532
11
157.618
21
-126.534
0
LINE
8
BLACK
6
CONTINUOUS
10
157.618
20
-126.534
11
157.617
21
-126.535
0
LINE
8
BLACK
6
CONTINUOUS
10
157.617
20
-126.535
11
156.673
21
-127.674
0
LINE
8
BLACK
6
CONTINUOUS
10
156.673
20
-127.674
11
156.671
21
-127.677
0
LINE
8
BLACK
6
CONTINUOUS
10
156.671
20
-127.677
11
156.669
21
-127.679
0
LINE
8
BLACK
6
CONTINUOUS
10
156.669
20
-127.679
11
156.668
21
-127.68
0
LINE
8
BLACK
6
CONTINUOUS
10
156.668
20
-127.68
11
155.608
21
-128.712
0
LINE
8
BLACK
6
CONTINUOUS
10
155.608
20
-128.712
11
155.605
21
-128.715
0
LINE
8
BLACK
6
CONTINUOUS
10
155.605
20
-128.715
11
155.604
21
-128.716
0
LINE
8
BLACK
6
CONTINUOUS
10
155.604
20
-128.716
11
155.602
21
-128.717
0
LINE
8
BLACK
6
CONTINUOUS
10
155.602
20
-128.717
11
154.439
21
-129.631
0
LINE
8
BLACK
6
CONTINUOUS
10
154.439
20
-129.631
11
154.436
21
-129.634
0
LINE
8
BLACK
6
CONTINUOUS
10
154.436
20
-129.634
11
154.434
21
-129.635
0
LINE
8
BLACK
6
CONTINUOUS
10
154.434
20
-129.635
11
154.433
21
-129.636
0
LINE
8
BLACK
6
CONTINUOUS
10
154.433
20
-129.636
11
153.179
21
-130.421
0
LINE
8
BLACK
6
CONTINUOUS
10
153.179
20
-130.421
11
153.175
21
-130.423
0
LINE
8
BLACK
6
CONTINUOUS
10
153.175
20
-130.423
11
153.174
21
-130.424
0
LINE
8
BLACK
6
CONTINUOUS
10
153.174
20
-130.424
11
153.172
21
-130.425
0
LINE
8
BLACK
6
CONTINUOUS
10
153.172
20
-130.425
11
151.842
21
-131.072
0
LINE
8
BLACK
6
CONTINUOUS
10
151.842
20
-131.072
11
151.838
21
-131.074
0
LINE
8
BLACK
6
CONTINUOUS
10
151.838
20
-131.074
11
151.836
21
-131.074
0
LINE
8
BLACK
6
CONTINUOUS
10
151.836
20
-131.074
11
151.834
21
-131.075
0
LINE
8
BLACK
6
CONTINUOUS
10
151.834
20
-131.075
11
150.443
21
-131.577
0
LINE
8
BLACK
6
CONTINUOUS
10
150.443
20
-131.577
11
150.439
21
-131.579
0
LINE
8
BLACK
6
CONTINUOUS
10
150.439
20
-131.579
11
150.437
21
-131.579
0
LINE
8
BLACK
6
CONTINUOUS
10
150.437
20
-131.579
11
150.435
21
-131.58
0
LINE
8
BLACK
6
CONTINUOUS
10
150.435
20
-131.58
11
148.999
21
-131.931
0
LINE
8
BLACK
6
CONTINUOUS
10
148.999
20
-131.931
11
148.995
21
-131.932
0
LINE
8
BLACK
6
CONTINUOUS
10
148.995
20
-131.932
11
148.993
21
-131.932
0
LINE
8
BLACK
6
CONTINUOUS
10
148.993
20
-131.932
11
148.991
21
-131.933
0
LINE
8
BLACK
6
CONTINUOUS
10
148.991
20
-131.933
11
147.525
21
-132.13
0
LINE
8
BLACK
6
CONTINUOUS
10
147.525
20
-132.13
11
147.521
21
-132.13
0
LINE
8
BLACK
6
CONTINUOUS
10
147.521
20
-132.13
11
147.519
21
-132.13
0
LINE
8
BLACK
6
CONTINUOUS
10
147.519
20
-132.13
11
147.518
21
-132.13
0
LINE
8
BLACK
6
CONTINUOUS
10
147.518
20
-132.13
11
146.408
21
-132.175
0
LINE
8
BLACK
6
CONTINUOUS
10
146.408
20
-132.175
11
146.407
21
-132.175
0
LINE
8
BLACK
6
CONTINUOUS
10
146.407
20
-132.175
11
84.5067
21
-132.175
0
LINE
8
BLACK
6
CONTINUOUS
10
84.5067
20
-132.175
11
84.5043
21
-132.175
0
LINE
8
BLACK
6
CONTINUOUS
10
84.5043
20
-132.175
11
84.4964
21
-132.175
0
LINE
8
BLACK
6
CONTINUOUS
10
84.4964
20
-132.175
11
83.0193
21
-132.097
0
LINE
8
BLACK
6
CONTINUOUS
10
83.0193
20
-132.097
11
83.0152
21
-132.096
0
LINE
8
BLACK
6
CONTINUOUS
10
83.0152
20
-132.096
11
83.0133
21
-132.096
0
LINE
8
BLACK
6
CONTINUOUS
10
83.0133
20
-132.096
11
83.0113
21
-132.096
0
LINE
8
BLACK
6
CONTINUOUS
10
83.0113
20
-132.096
11
81.5509
21
-131.86
0
LINE
8
BLACK
6
CONTINUOUS
10
81.5509
20
-131.86
11
81.547
21
-131.86
0
LINE
8
BLACK
6
CONTINUOUS
10
81.547
20
-131.86
11
81.5451
21
-131.859
0
LINE
8
BLACK
6
CONTINUOUS
10
81.5451
20
-131.859
11
81.5431
21
-131.859
0
LINE
8
BLACK
6
CONTINUOUS
10
81.5431
20
-131.859
11
80.116
21
-131.47
0
LINE
8
BLACK
6
CONTINUOUS
10
80.116
20
-131.47
11
80.1121
21
-131.469
0
LINE
8
BLACK
6
CONTINUOUS
10
80.1121
20
-131.469
11
80.1103
21
-131.468
0
LINE
8
BLACK
6
CONTINUOUS
10
80.1103
20
-131.468
11
80.1084
21
-131.467
0
LINE
8
BLACK
6
CONTINUOUS
10
80.1084
20
-131.467
11
78.7308
21
-130.929
0
LINE
8
BLACK
6
CONTINUOUS
10
78.7308
20
-130.929
11
78.727
21
-130.927
0
LINE
8
BLACK
6
CONTINUOUS
10
78.727
20
-130.927
11
78.7253
21
-130.926
0
LINE
8
BLACK
6
CONTINUOUS
10
78.7253
20
-130.926
11
78.7235
21
-130.925
0
LINE
8
BLACK
6
CONTINUOUS
10
78.7235
20
-130.925
11
77.4108
21
-130.244
0
LINE
8
BLACK
6
CONTINUOUS
10
77.4108
20
-130.244
11
77.4073
21
-130.242
0
LINE
8
BLACK
6
CONTINUOUS
10
77.4073
20
-130.242
11
77.4056
21
-130.24
0
LINE
8
BLACK
6
CONTINUOUS
10
77.4056
20
-130.24
11
77.4039
21
-130.239
0
LINE
8
BLACK
6
CONTINUOUS
10
77.4039
20
-130.239
11
76.1712
21
-129.422
0
LINE
8
BLACK
6
CONTINUOUS
10
76.1712
20
-129.422
11
76.1679
21
-129.42
0
LINE
8
BLACK
6
CONTINUOUS
10
76.1679
20
-129.42
11
76.1663
21
-129.418
0
LINE
8
BLACK
6
CONTINUOUS
10
76.1663
20
-129.418
11
76.1648
21
-129.417
0
LINE
8
BLACK
6
CONTINUOUS
10
76.1648
20
-129.417
11
75.0258
21
-128.473
0
LINE
8
BLACK
6
CONTINUOUS
10
75.0258
20
-128.473
11
75.0228
21
-128.471
0
LINE
8
BLACK
6
CONTINUOUS
10
75.0228
20
-128.471
11
75.0214
21
-128.469
0
LINE
8
BLACK
6
CONTINUOUS
10
75.0214
20
-128.469
11
75.02
21
-128.468
0
LINE
8
BLACK
6
CONTINUOUS
10
75.02
20
-128.468
11
73.9878
21
-127.408
0
LINE
8
BLACK
6
CONTINUOUS
10
73.9878
20
-127.408
11
73.985
21
-127.405
0
LINE
8
BLACK
6
CONTINUOUS
10
73.985
20
-127.405
11
73.9838
21
-127.404
0
LINE
8
BLACK
6
CONTINUOUS
10
73.9838
20
-127.404
11
73.9825
21
-127.402
0
LINE
8
BLACK
6
CONTINUOUS
10
73.9825
20
-127.402
11
73.0688
21
-126.239
0
LINE
8
BLACK
6
CONTINUOUS
10
73.0688
20
-126.239
11
73.0664
21
-126.236
0
LINE
8
BLACK
6
CONTINUOUS
10
73.0664
20
-126.236
11
73.0653
21
-126.234
0
LINE
8
BLACK
6
CONTINUOUS
10
73.0653
20
-126.234
11
73.0642
21
-126.233
0
LINE
8
BLACK
6
CONTINUOUS
10
73.0642
20
-126.233
11
72.2793
21
-124.979
0
LINE
8
BLACK
6
CONTINUOUS
10
72.2793
20
-124.979
11
72.2772
21
-124.975
0
LINE
8
BLACK
6
CONTINUOUS
10
72.2772
20
-124.975
11
72.2763
21
-124.974
0
LINE
8
BLACK
6
CONTINUOUS
10
72.2763
20
-124.974
11
72.2754
21
-124.972
0
LINE
8
BLACK
6
CONTINUOUS
10
72.2754
20
-124.972
11
71.6281
21
-123.642
0
LINE
8
BLACK
6
CONTINUOUS
10
71.6281
20
-123.642
11
71.6264
21
-123.638
0
LINE
8
BLACK
6
CONTINUOUS
10
71.6264
20
-123.638
11
71.6258
21
-123.636
0
LINE
8
BLACK
6
CONTINUOUS
10
71.6258
20
-123.636
11
71.625
21
-123.634
0
LINE
8
BLACK
6
CONTINUOUS
10
71.625
20
-123.634
11
71.1227
21
-122.243
0
LINE
8
BLACK
6
CONTINUOUS
10
71.1227
20
-122.243
11
71.1215
21
-122.239
0
LINE
8
BLACK
6
CONTINUOUS
10
71.1215
20
-122.239
11
71.121
21
-122.237
0
LINE
8
BLACK
6
CONTINUOUS
10
71.121
20
-122.237
11
71.1204
21
-122.235
0
LINE
8
BLACK
6
CONTINUOUS
10
71.1204
20
-122.235
11
70.7688
21
-120.799
0
LINE
8
BLACK
6
CONTINUOUS
10
70.7688
20
-120.799
11
70.768
21
-120.795
0
LINE
8
BLACK
6
CONTINUOUS
10
70.768
20
-120.795
11
70.7677
21
-120.793
0
LINE
8
BLACK
6
CONTINUOUS
10
70.7677
20
-120.793
11
70.7674
21
-120.791
0
LINE
8
BLACK
6
CONTINUOUS
10
70.7674
20
-120.791
11
70.5704
21
-119.325
0
LINE
8
BLACK
6
CONTINUOUS
10
70.5704
20
-119.325
11
70.57
21
-119.321
0
LINE
8
BLACK
6
CONTINUOUS
10
70.57
20
-119.321
11
70.57
21
-119.319
0
LINE
8
BLACK
6
CONTINUOUS
10
70.57
20
-119.319
11
70.5698
21
-119.318
0
LINE
8
BLACK
6
CONTINUOUS
10
70.5698
20
-119.318
11
70.5253
21
-118.208
0
LINE
8
BLACK
6
CONTINUOUS
10
70.5253
20
-118.208
11
70.525
21
-118.207
0
LINE
8
BLACK
6
CONTINUOUS
10
70.525
20
-118.207
11
70.525
21
-90.7934
0
LINE
8
BLACK
6
CONTINUOUS
10
70.525
20
-90.7934
11
70.5254
21
-90.7912
0
LINE
8
BLACK
6
CONTINUOUS
10
70.5254
20
-90.7912
11
70.6145
21
-89.319
0
LINE
8
BLACK
6
CONTINUOUS
10
70.6145
20
-89.319
11
70.6149
21
-89.3149
0
LINE
8
BLACK
6
CONTINUOUS
10
70.6149
20
-89.3149
11
70.6152
21
-89.313
0
LINE
8
BLACK
6
CONTINUOUS
10
70.6152
20
-89.313
11
70.6154
21
-89.311
0
LINE
8
BLACK
6
CONTINUOUS
10
70.6154
20
-89.311
11
70.8612
21
-87.8524
0
LINE
8
BLACK
6
CONTINUOUS
10
70.8612
20
-87.8524
11
70.862
21
-87.8484
0
LINE
8
BLACK
6
CONTINUOUS
10
70.862
20
-87.8484
11
70.8625
21
-87.8465
0
LINE
8
BLACK
6
CONTINUOUS
10
70.8625
20
-87.8465
11
70.8629
21
-87.8446
0
LINE
8
BLACK
6
CONTINUOUS
10
70.8629
20
-87.8446
11
71.2623
21
-86.4203
0
LINE
8
BLACK
6
CONTINUOUS
10
71.2623
20
-86.4203
11
71.2635
21
-86.4165
0
LINE
8
BLACK
6
CONTINUOUS
10
71.2635
20
-86.4165
11
71.2642
21
-86.4146
0
LINE
8
BLACK
6
CONTINUOUS
10
71.2642
20
-86.4146
11
71.2648
21
-86.4128
0
LINE
8
BLACK
6
CONTINUOUS
10
71.2648
20
-86.4128
11
71.8133
21
-85.039
0
LINE
8
BLACK
6
CONTINUOUS
10
71.8133
20
-85.039
11
71.8149
21
-85.0353
0
LINE
8
BLACK
6
CONTINUOUS
10
71.8149
20
-85.0353
11
71.8158
21
-85.0336
0
LINE
8
BLACK
6
CONTINUOUS
10
71.8158
20
-85.0336
11
71.8167
21
-85.0318
0
LINE
8
BLACK
6
CONTINUOUS
10
71.8167
20
-85.0318
11
72.508
21
-83.7241
0
LINE
8
BLACK
6
CONTINUOUS
10
72.508
20
-83.7241
11
72.51
21
-83.7205
0
LINE
8
BLACK
6
CONTINUOUS
10
72.51
20
-83.7205
11
72.5111
21
-83.7189
0
LINE
8
BLACK
6
CONTINUOUS
10
72.5111
20
-83.7189
11
72.5121
21
-83.7172
0
LINE
8
BLACK
6
CONTINUOUS
10
72.5121
20
-83.7172
11
73.3385
21
-82.4904
0
LINE
8
BLACK
6
CONTINUOUS
10
73.3385
20
-82.4904
11
73.3408
21
-82.4871
0
LINE
8
BLACK
6
CONTINUOUS
10
73.3408
20
-82.4871
11
73.3421
21
-82.4856
0
LINE
8
BLACK
6
CONTINUOUS
10
73.3421
20
-82.4856
11
73.3433
21
-82.484
0
LINE
8
BLACK
6
CONTINUOUS
10
73.3433
20
-82.484
11
74.2953
21
-81.3519
0
LINE
8
BLACK
6
CONTINUOUS
10
74.2953
20
-81.3519
11
74.298
21
-81.3489
0
LINE
8
BLACK
6
CONTINUOUS
10
74.298
20
-81.3489
11
74.2995
21
-81.3475
0
LINE
8
BLACK
6
CONTINUOUS
10
74.2995
20
-81.3475
11
74.3008
21
-81.3461
0
LINE
8
BLACK
6
CONTINUOUS
10
74.3008
20
-81.3461
11
75.3678
21
-80.3216
0
LINE
8
BLACK
6
CONTINUOUS
10
75.3678
20
-80.3216
11
75.3708
21
-80.3189
0
LINE
8
BLACK
6
CONTINUOUS
10
75.3708
20
-80.3189
11
75.3723
21
-80.3177
0
LINE
8
BLACK
6
CONTINUOUS
10
75.3723
20
-80.3177
11
75.3738
21
-80.3164
0
LINE
8
BLACK
6
CONTINUOUS
10
75.3738
20
-80.3164
11
76.5436
21
-79.4111
0
LINE
8
BLACK
6
CONTINUOUS
10
76.5436
20
-79.4111
11
76.5469
21
-79.4087
0
LINE
8
BLACK
6
CONTINUOUS
10
76.5469
20
-79.4087
11
76.5486
21
-79.4076
0
LINE
8
BLACK
6
CONTINUOUS
10
76.5486
20
-79.4076
11
76.5502
21
-79.4065
0
LINE
8
BLACK
6
CONTINUOUS
10
76.5502
20
-79.4065
11
77.8096
21
-78.6306
0
LINE
8
BLACK
6
CONTINUOUS
10
77.8096
20
-78.6306
11
77.8131
21
-78.6286
0
LINE
8
BLACK
6
CONTINUOUS
10
77.8131
20
-78.6286
11
77.8149
21
-78.6278
0
LINE
8
BLACK
6
CONTINUOUS
10
77.8149
20
-78.6278
11
77.8166
21
-78.6268
0
LINE
8
BLACK
6
CONTINUOUS
10
77.8166
20
-78.6268
11
79.1513
21
-77.9892
0
LINE
8
BLACK
6
CONTINUOUS
10
79.1513
20
-77.9892
11
79.155
21
-77.9875
0
LINE
8
BLACK
6
CONTINUOUS
10
79.155
20
-77.9875
11
79.1569
21
-77.9869
0
LINE
8
BLACK
6
CONTINUOUS
10
79.1569
20
-77.9869
11
79.1587
21
-77.9861
0
LINE
8
BLACK
6
CONTINUOUS
10
79.1587
20
-77.9861
11
80.5536
21
-77.4939
0
LINE
8
BLACK
6
CONTINUOUS
10
80.5536
20
-77.4939
11
80.5574
21
-77.4926
0
LINE
8
BLACK
6
CONTINUOUS
10
80.5574
20
-77.4926
11
80.5594
21
-77.4922
0
LINE
8
BLACK
6
CONTINUOUS
10
80.5594
20
-77.4922
11
80.5612
21
-77.4916
0
LINE
8
BLACK
6
CONTINUOUS
10
80.5612
20
-77.4916
11
82.0005
21
-77.1504
0
LINE
8
BLACK
6
CONTINUOUS
10
82.0005
20
-77.1504
11
82.0045
21
-77.1496
0
LINE
8
BLACK
6
CONTINUOUS
10
82.0045
20
-77.1496
11
82.0065
21
-77.1494
0
LINE
8
BLACK
6
CONTINUOUS
10
82.0065
20
-77.1494
11
82.0084
21
-77.149
0
LINE
8
BLACK
6
CONTINUOUS
10
82.0084
20
-77.149
11
83.4758
21
-76.9627
0
LINE
8
BLACK
6
CONTINUOUS
10
83.4758
20
-76.9627
11
83.4799
21
-76.9623
0
LINE
8
BLACK
6
CONTINUOUS
10
83.4799
20
-76.9623
11
83.4812
21
-76.9623
0
LINE
8
BLACK
6
CONTINUOUS
10
83.4812
20
-76.9623
11
83.4825
21
-76.9621
0
LINE
8
BLACK
6
CONTINUOUS
10
83.4825
20
-76.9621
11
84.4921
21
-76.9252
0
LINE
8
BLACK
6
CONTINUOUS
10
84.4921
20
-76.9252
11
84.4934
21
-76.925
0
LINE
8
BLACK
6
CONTINUOUS
10
84.4934
20
-76.925
11
146.393
21
-76.925
0
LINE
8
BLACK
6
CONTINUOUS
10
146.393
20
-76.925
11
146.396
21
-76.9247
0
LINE
8
BLACK
6
CONTINUOUS
10
146.396
20
-76.9247
11
146.404
21
-76.9247
0
LINE
8
BLACK
6
CONTINUOUS
10
146.404
20
-76.9247
11
147.881
21
-77.0035
0
LINE
8
BLACK
6
CONTINUOUS
10
84.5014
20
-77.075
11
83.4914
21
-77.1119
0
LINE
8
BLACK
6
CONTINUOUS
10
83.4914
20
-77.1119
11
82.0313
21
-77.2973
0
LINE
8
BLACK
6
CONTINUOUS
10
82.0313
20
-77.2973
11
80.5997
21
-77.6367
0
LINE
8
BLACK
6
CONTINUOUS
10
80.5997
20
-77.6367
11
79.2123
21
-78.1262
0
LINE
8
BLACK
6
CONTINUOUS
10
79.2123
20
-78.1262
11
77.8849
21
-78.7604
0
LINE
8
BLACK
6
CONTINUOUS
10
77.8849
20
-78.7604
11
76.6323
21
-79.5321
0
LINE
8
BLACK
6
CONTINUOUS
10
76.6323
20
-79.5321
11
75.4688
21
-80.4326
0
LINE
8
BLACK
6
CONTINUOUS
10
75.4688
20
-80.4326
11
74.4076
21
-81.4515
0
LINE
8
BLACK
6
CONTINUOUS
10
74.4076
20
-81.4515
11
73.4606
21
-82.5775
0
LINE
8
BLACK
6
CONTINUOUS
10
73.4606
20
-82.5775
11
72.6387
21
-83.7977
0
LINE
8
BLACK
6
CONTINUOUS
10
72.6387
20
-83.7977
11
71.9511
21
-85.0983
0
LINE
8
BLACK
6
CONTINUOUS
10
71.9511
20
-85.0983
11
71.4056
21
-86.4647
0
LINE
8
BLACK
6
CONTINUOUS
10
71.4056
20
-86.4647
11
71.0084
21
-87.8813
0
LINE
8
BLACK
6
CONTINUOUS
10
71.0084
20
-87.8813
11
70.764
21
-89.332
0
LINE
8
BLACK
6
CONTINUOUS
10
70.764
20
-89.332
11
70.675
21
-90.8023
0
LINE
8
BLACK
6
CONTINUOUS
10
70.675
20
-90.8023
11
70.675
21
-118.198
0
LINE
8
BLACK
6
CONTINUOUS
10
70.675
20
-118.198
11
70.7196
21
-119.308
0
LINE
8
BLACK
6
CONTINUOUS
10
70.7196
20
-119.308
11
70.9155
21
-120.767
0
LINE
8
BLACK
6
CONTINUOUS
10
70.9155
20
-120.767
11
71.2652
21
-122.196
0
LINE
8
BLACK
6
CONTINUOUS
10
71.2652
20
-122.196
11
71.7647
21
-123.58
0
LINE
8
BLACK
6
CONTINUOUS
10
71.7647
20
-123.58
11
72.4085
21
-124.903
0
LINE
8
BLACK
6
CONTINUOUS
10
72.4085
20
-124.903
11
73.1892
21
-126.15
0
LINE
8
BLACK
6
CONTINUOUS
10
73.1892
20
-126.15
11
74.098
21
-127.307
0
LINE
8
BLACK
6
CONTINUOUS
10
74.098
20
-127.307
11
75.1246
21
-128.36
0
LINE
8
BLACK
6
CONTINUOUS
10
75.1246
20
-128.36
11
76.2574
21
-129.299
0
LINE
8
BLACK
6
CONTINUOUS
10
76.2574
20
-129.299
11
77.4835
21
-130.112
0
LINE
8
BLACK
6
CONTINUOUS
10
77.4835
20
-130.112
11
78.7891
21
-130.79
0
LINE
8
BLACK
6
CONTINUOUS
10
78.7891
20
-130.79
11
80.1593
21
-131.326
0
LINE
8
BLACK
6
CONTINUOUS
10
80.1593
20
-131.326
11
81.5787
21
-131.713
0
LINE
8
BLACK
6
CONTINUOUS
10
81.5787
20
-131.713
11
83.0312
21
-131.947
0
LINE
8
BLACK
6
CONTINUOUS
10
83.0312
20
-131.947
11
84.4956
21
-132.025
0
LINE
8
BLACK
6
CONTINUOUS
10
84.4956
20
-132.025
11
146.398
21
-132.025
0
LINE
8
BLACK
6
CONTINUOUS
10
146.398
20
-132.025
11
147.508
21
-131.98
0
LINE
8
BLACK
6
CONTINUOUS
10
147.508
20
-131.98
11
148.967
21
-131.785
0
LINE
8
BLACK
6
CONTINUOUS
10
148.967
20
-131.785
11
150.396
21
-131.435
0
LINE
8
BLACK
6
CONTINUOUS
10
150.396
20
-131.435
11
151.78
21
-130.935
0
LINE
8
BLACK
6
CONTINUOUS
10
151.78
20
-130.935
11
153.103
21
-130.291
0
LINE
8
BLACK
6
CONTINUOUS
10
153.103
20
-130.291
11
154.35
21
-129.511
0
LINE
8
BLACK
6
CONTINUOUS
10
154.35
20
-129.511
11
155.507
21
-128.602
0
LINE
8
BLACK
6
CONTINUOUS
10
155.507
20
-128.602
11
156.56
21
-127.575
0
LINE
8
BLACK
6
CONTINUOUS
10
156.56
20
-127.575
11
157.499
21
-126.443
0
LINE
8
BLACK
6
CONTINUOUS
10
157.499
20
-126.443
11
158.312
21
-125.216
0
LINE
8
BLACK
6
CONTINUOUS
10
158.312
20
-125.216
11
158.99
21
-123.911
0
LINE
8
BLACK
6
CONTINUOUS
10
158.99
20
-123.911
11
159.526
21
-122.541
0
LINE
8
BLACK
6
CONTINUOUS
10
159.526
20
-122.541
11
159.913
21
-121.121
0
LINE
8
BLACK
6
CONTINUOUS
10
159.913
20
-121.121
11
160.147
21
-119.669
0
LINE
8
BLACK
6
CONTINUOUS
10
160.147
20
-119.669
11
160.225
21
-118.204
0
LINE
8
BLACK
6
CONTINUOUS
10
160.225
20
-118.204
11
160.225
21
-90.9015
0
LINE
8
BLACK
6
CONTINUOUS
10
160.225
20
-90.9015
11
160.18
21
-89.7917
0
LINE
8
BLACK
6
CONTINUOUS
10
160.18
20
-89.7917
11
159.985
21
-88.3331
0
LINE
8
BLACK
6
CONTINUOUS
10
159.985
20
-88.3331
11
159.635
21
-86.9041
0
LINE
8
BLACK
6
CONTINUOUS
10
159.635
20
-86.9041
11
159.135
21
-85.5203
0
LINE
8
BLACK
6
CONTINUOUS
10
159.135
20
-85.5203
11
158.491
21
-84.1974
0
LINE
8
BLACK
6
CONTINUOUS
10
158.491
20
-84.1974
11
157.711
21
-82.9504
0
LINE
8
BLACK
6
CONTINUOUS
10
157.711
20
-82.9504
11
156.802
21
-81.7935
0
LINE
8
BLACK
6
CONTINUOUS
10
156.802
20
-81.7935
11
155.775
21
-80.7396
0
LINE
8
BLACK
6
CONTINUOUS
10
155.775
20
-80.7396
11
154.643
21
-79.8008
0
LINE
8
BLACK
6
CONTINUOUS
10
154.643
20
-79.8008
11
153.416
21
-78.9878
0
LINE
8
BLACK
6
CONTINUOUS
10
153.416
20
-78.9878
11
152.111
21
-78.3096
0
LINE
8
BLACK
6
CONTINUOUS
10
152.111
20
-78.3096
11
150.741
21
-77.774
0
LINE
8
BLACK
6
CONTINUOUS
10
150.741
20
-77.774
11
149.321
21
-77.387
0
LINE
8
BLACK
6
CONTINUOUS
10
149.321
20
-77.387
11
147.869
21
-77.153
0
LINE
8
BLACK
6
CONTINUOUS
10
147.869
20
-77.153
11
146.404
21
-77.075
0
LINE
8
BLACK
6
CONTINUOUS
10
146.404
20
-77.075
11
84.5014
21
-77.075
  0
ENDSEC
  0
EOF
